<svg width="17" height="20" viewBox="0 0 17 20" fill="none" xmlns="http://www.w3.org/2000/svg">
<path d="M1.625 20.0002C1.35978 20.0002 1.10543 19.8949 0.917893 19.7074C0.730357 19.5198 0.625 19.2655 0.625 19.0002V1.00024C0.625 0.735028 0.730357 0.480674 0.917893 0.293137C1.10543 0.105601 1.35978 0.000244141 1.625 0.000244141H15.625C15.8902 0.000244141 16.1446 0.105601 16.3321 0.293137C16.5196 0.480674 16.625 0.735028 16.625 1.00024V19.0002C16.625 19.2655 16.5196 19.5198 16.3321 19.7074C16.1446 19.8949 15.8902 20.0002 15.625 20.0002H1.625ZM11.625 14.0002L16.625 10.0002L11.625 6.00024V9.00024H5.625V11.0002H11.625V14.0002Z" fill="white"/>
</svg>
