<svg width="41" height="40" viewBox="0 0 41 40" fill="none" xmlns="http://www.w3.org/2000/svg">
<g clip-path="url(#clip0_19_182)">
<path d="M28.5625 16C28.5625 18.1217 27.7196 20.1566 26.2194 21.6569C24.7191 23.1571 22.6842 24 20.5625 24C18.4408 24 16.4059 23.1571 14.9056 21.6569C13.4054 20.1566 12.5625 18.1217 12.5625 16C12.5625 13.8783 13.4054 11.8434 14.9056 10.3431C16.4059 8.84285 18.4408 8 20.5625 8C22.6842 8 24.7191 8.84285 26.2194 10.3431C27.7196 11.8434 28.5625 13.8783 28.5625 16Z" fill="white"/>
<path fill-rule="evenodd" clip-rule="evenodd" d="M19.7465 39.984C9.0795 39.556 0.5625 30.772 0.5625 20C0.5625 8.954 9.5165 0 20.5625 0C31.6085 0 40.5625 8.954 40.5625 20C40.5625 31.046 31.6085 40 20.5625 40C20.4712 40.0006 20.3798 40.0006 20.2885 40C20.1075 40 19.9265 39.994 19.7465 39.984ZM7.7285 32.62C7.57896 32.1906 7.52807 31.733 7.57958 31.2812C7.6311 30.8294 7.78371 30.395 8.02608 30.0103C8.26845 29.6255 8.59436 29.3003 8.97962 29.0588C9.36488 28.8172 9.7996 28.6655 10.2515 28.615C18.0475 27.752 23.1255 27.83 30.8835 28.633C31.336 28.6801 31.7718 28.8299 32.1577 29.0709C32.5436 29.3119 32.8693 29.6378 33.1102 30.0237C33.3511 30.4096 33.5008 30.8455 33.5478 31.298C33.5948 31.7505 33.5379 32.2078 33.3815 32.635C36.7064 29.2709 38.5685 24.7299 38.5625 20C38.5625 10.059 30.5035 2 20.5625 2C10.6215 2 2.5625 10.059 2.5625 20C2.5625 24.916 4.5335 29.372 7.7285 32.62Z" fill="white"/>
</g>
<defs>
<clipPath id="clip0_19_182">
<rect width="40" height="40.0004" fill="white" transform="translate(0.5625)"/>
</clipPath>
</defs>
</svg>
